<svg xmlns="http://www.w3.org/2000/svg" viewBox="0 0 158 157">
<style>
  path { fill: #1a1a2e; }
  @media (prefers-color-scheme: dark) {
    path { fill: #e0e0e0; }
  }
</style>
<g><path d="M61.56,125.09c-6.1-11.2-38.01-12.39-42.45,1.36-.27.85-.45,1.93-.56,3.17,10.91,12.92,25.89,22.27,42.96,26.08.26-9.8,4.22-22.95.04-30.61h0Z"/><path d="M78.76,0C43.38,0,13.46,23.32,3.5,55.43c14.32-10.95,28.84-9.41,46.34-9.31-8.87,17.21-4.21,36.56,12.56,46.53,16.87,10.04,31.1,3.26,32.09,4.59l-7.58,59.96c39.68-4.08,70.63-37.62,70.63-78.39C157.54,35.28,122.26,0,78.75,0h.01,0ZM140.17,89.26c-1.17.08-5.96-.97-6.28-.51-.36,10.21,2.87,33.57-3.74,41.1-6.42,7.33-20.09,6.29-26.49-1.7-7.6-9.49-.08-6.79,6.28-10.36l.85.17c1.91,6.15,9.56,7.16,11.55,2.04,2.18-5.62-.38-36.58-18.17-33.46-1.81.32-14.55,11.6-34.98,3.06-29.96-12.53-21.08-55.82,13.24-52.31,6.1.62,14.61,4.39,19.02,8.83,34.4,4.56,21.94,28.27,36.33,39.74,2.11,1.68,7.89,3.03,2.38,3.4h0Z"/></g>
</svg>
